<svg id="visual" viewBox="0 0 900 600" width="900" height="600" xmlns="http://www.w3.org/2000/svg" xmlns:xlink="http://www.w3.org/1999/xlink" version="1.1"><rect x="0" y="0" width="900" height="600" fill="#659dbd"></rect><path d="M0 135L21.5 131.7C43 128.3 86 121.7 128.8 116.7C171.7 111.7 214.3 108.3 257.2 109.3C300 110.3 343 115.7 385.8 122.5C428.7 129.3 471.3 137.7 514.2 133.8C557 130 600 114 642.8 108.8C685.7 103.7 728.3 109.3 771.2 108.8C814 108.3 857 101.7 878.5 98.3L900 95L900 0L878.5 0C857 0 814 0 771.2 0C728.3 0 685.7 0 642.8 0C600 0 557 0 514.2 0C471.3 0 428.7 0 385.8 0C343 0 300 0 257.2 0C214.3 0 171.7 0 128.8 0C86 0 43 0 21.5 0L0 0Z" fill="#c4c1bb"></path><path d="M0 81L21.5 86C43 91 86 101 128.8 100.7C171.7 100.3 214.3 89.7 257.2 88.2C300 86.7 343 94.3 385.8 94.8C428.7 95.3 471.3 88.7 514.2 86.5C557 84.3 600 86.7 642.8 88.3C685.7 90 728.3 91 771.2 87.8C814 84.7 857 77.3 878.5 73.7L900 70L900 0L878.5 0C857 0 814 0 771.2 0C728.3 0 685.7 0 642.8 0C600 0 557 0 514.2 0C471.3 0 428.7 0 385.8 0C343 0 300 0 257.2 0C214.3 0 171.7 0 128.8 0C86 0 43 0 21.5 0L0 0Z" fill="#cbc9c4"></path><path d="M0 64L21.5 65.5C43 67 86 70 128.8 70.2C171.7 70.3 214.3 67.7 257.2 64.2C300 60.7 343 56.3 385.8 58.2C428.7 60 471.3 68 514.2 71.5C557 75 600 74 642.8 75.5C685.7 77 728.3 81 771.2 79C814 77 857 69 878.5 65L900 61L900 0L878.5 0C857 0 814 0 771.2 0C728.3 0 685.7 0 642.8 0C600 0 557 0 514.2 0C471.3 0 428.7 0 385.8 0C343 0 300 0 257.2 0C214.3 0 171.7 0 128.8 0C86 0 43 0 21.5 0L0 0Z" fill="#d3d1cd"></path><path d="M0 36L21.5 36.8C43 37.7 86 39.3 128.8 44.8C171.7 50.3 214.3 59.7 257.2 63.7C300 67.7 343 66.3 385.8 60.7C428.7 55 471.3 45 514.2 44C557 43 600 51 642.8 55.3C685.7 59.7 728.3 60.3 771.2 59.3C814 58.3 857 55.7 878.5 54.3L900 53L900 0L878.5 0C857 0 814 0 771.2 0C728.3 0 685.7 0 642.8 0C600 0 557 0 514.2 0C471.3 0 428.7 0 385.8 0C343 0 300 0 257.2 0C214.3 0 171.7 0 128.8 0C86 0 43 0 21.5 0L0 0Z" fill="#dbd9d6"></path><path d="M0 21L21.5 24.5C43 28 86 35 128.8 38.3C171.7 41.7 214.3 41.3 257.2 37.3C300 33.3 343 25.7 385.8 25C428.7 24.3 471.3 30.7 514.2 34.7C557 38.7 600 40.3 642.8 40.7C685.7 41 728.3 40 771.2 39.2C814 38.3 857 37.7 878.5 37.3L900 37L900 0L878.5 0C857 0 814 0 771.2 0C728.3 0 685.7 0 642.8 0C600 0 557 0 514.2 0C471.3 0 428.7 0 385.8 0C343 0 300 0 257.2 0C214.3 0 171.7 0 128.8 0C86 0 43 0 21.5 0L0 0Z" fill="#e3e2df"></path></svg>