<svg id="visual" viewBox="0 0 900 600" width="900" height="600" xmlns="http://www.w3.org/2000/svg" xmlns:xlink="http://www.w3.org/1999/xlink" version="1.1"><rect x="0" y="0" width="900" height="600" fill="#659DBD"></rect><path d="M0 151L15 151.8C30 152.7 60 154.3 90 154.2C120 154 150 152 180 148.7C210 145.3 240 140.7 270 144.7C300 148.7 330 161.3 360 166C390 170.7 420 167.3 450 162.8C480 158.3 510 152.7 540 147.8C570 143 600 139 630 141.7C660 144.3 690 153.7 720 154C750 154.3 780 145.7 810 140.8C840 136 870 135 885 134.5L900 134L900 0L885 0C870 0 840 0 810 0C780 0 750 0 720 0C690 0 660 0 630 0C600 0 570 0 540 0C510 0 480 0 450 0C420 0 390 0 360 0C330 0 300 0 270 0C240 0 210 0 180 0C150 0 120 0 90 0C60 0 30 0 15 0L0 0Z" fill="#808080"></path><path d="M0 136L15 132.2C30 128.3 60 120.7 90 120.7C120 120.7 150 128.3 180 126.2C210 124 240 112 270 108.3C300 104.7 330 109.3 360 110.8C390 112.3 420 110.7 450 111.2C480 111.7 510 114.3 540 116C570 117.7 600 118.3 630 116.7C660 115 690 111 720 109.8C750 108.7 780 110.3 810 112.3C840 114.3 870 116.7 885 117.8L900 119L900 0L885 0C870 0 840 0 810 0C780 0 750 0 720 0C690 0 660 0 630 0C600 0 570 0 540 0C510 0 480 0 450 0C420 0 390 0 360 0C330 0 300 0 270 0C240 0 210 0 180 0C150 0 120 0 90 0C60 0 30 0 15 0L0 0Z" fill="#9c9c9c"></path><path d="M0 93L15 88.3C30 83.7 60 74.3 90 74C120 73.7 150 82.3 180 85.8C210 89.3 240 87.7 270 86.5C300 85.3 330 84.7 360 81.2C390 77.7 420 71.3 450 69.7C480 68 510 71 540 76C570 81 600 88 630 89.8C660 91.7 690 88.3 720 84.2C750 80 780 75 810 73.3C840 71.7 870 73.3 885 74.2L900 75L900 0L885 0C870 0 840 0 810 0C780 0 750 0 720 0C690 0 660 0 630 0C600 0 570 0 540 0C510 0 480 0 450 0C420 0 390 0 360 0C330 0 300 0 270 0C240 0 210 0 180 0C150 0 120 0 90 0C60 0 30 0 15 0L0 0Z" fill="#bababa"></path><path d="M0 57L15 56.2C30 55.3 60 53.7 90 50.5C120 47.3 150 42.7 180 41.7C210 40.7 240 43.3 270 46.8C300 50.3 330 54.7 360 52.8C390 51 420 43 450 40.7C480 38.3 510 41.7 540 45C570 48.3 600 51.7 630 50.7C660 49.7 690 44.3 720 44.2C750 44 780 49 810 48C840 47 870 40 885 36.5L900 33L900 0L885 0C870 0 840 0 810 0C780 0 750 0 720 0C690 0 660 0 630 0C600 0 570 0 540 0C510 0 480 0 450 0C420 0 390 0 360 0C330 0 300 0 270 0C240 0 210 0 180 0C150 0 120 0 90 0C60 0 30 0 15 0L0 0Z" fill="#d9d9d9"></path></svg>